REM DIRINDEX 1\2\6,1\2\7,1\2\8,1\3\9,1\3\10,1\3\11,1\4\12,1\4\13,1\4\14,1\5\15,1\5\16,1\5\17,1\5\18
REM DIRNAME folder01,folder02,folder03,folder04,folder05,folder06,folder07,folder08,folder09,folder10,folder11,folder12,folder13,folder14,folder15,folder16,folder17,folder18
TITLE ""
FILE "" MP3
  TRACK 01 AUDIO
    TITLE "16:cjc019_4583"
    INDEX 01 00:00:00
  TRACK 02 AUDIO
    TITLE "0:"
    INDEX 01 00:01:11
  TRACK 03 AUDIO
    TITLE "18:cjc019_4584"
    INDEX 01 00:01:64
  TRACK 04 AUDIO
    TITLE "0:"
    INDEX 01 00:03:37
  TRACK 05 AUDIO
    TITLE "17:cjc019_4585"
    INDEX 01 00:04:13
  TRACK 06 AUDIO
    TITLE "0:"
    INDEX 01 00:05:38
  TRACK 07 AUDIO
    TITLE "16:cjc019_4586"
    INDEX 01 00:07:15
  TRACK 08 AUDIO
    TITLE "0:"
    INDEX 01 00:08:28
  TRACK 09 AUDIO
    TITLE "18:cjc019_4587"
    INDEX 01 00:09:00
  TRACK 10 AUDIO
    TITLE "0:"
    INDEX 01 00:10:55
  TRACK 11 AUDIO
    TITLE "17:cjc019_4588"
    INDEX 01 00:11:33
  TRACK 12 AUDIO
    TITLE "0:"
    INDEX 01 00:12:50
  TRACK 13 AUDIO
    TITLE "16:cjc019_4589"
    INDEX 01 00:14:25
  TRACK 14 AUDIO
    TITLE "0:"
    INDEX 01 00:15:46
  TRACK 15 AUDIO
    TITLE "18:cjc019_4590"
    INDEX 01 00:16:22
  TRACK 16 AUDIO
    TITLE "0:"
    INDEX 01 00:19:54
  TRACK 17 AUDIO
    TITLE "17:cjc019_4591"
    INDEX 01 00:20:28
  TRACK 18 AUDIO
    TITLE "0:"
    INDEX 01 00:21:51
  TRACK 19 AUDIO
    TITLE "16:cjc019_4592"
    INDEX 01 00:23:28
  TRACK 20 AUDIO
    TITLE "0:"
    INDEX 01 00:24:51
  TRACK 21 AUDIO
    TITLE "18:cjc019_4593"
    INDEX 01 00:25:27
  TRACK 22 AUDIO
    TITLE "0:"
    INDEX 01 00:27:18
  TRACK 23 AUDIO
    TITLE "17:cjc019_4594"
    INDEX 01 00:27:69
  TRACK 24 AUDIO
    TITLE "0:"
    INDEX 01 00:29:17
  TRACK 25 AUDIO
    TITLE "16:cjc019_4595"
    INDEX 01 00:30:73
  TRACK 26 AUDIO
    TITLE "0:"
    INDEX 01 00:32:11
  TRACK 27 AUDIO
    TITLE "18:cjc019_4596"
    INDEX 01 00:32:56
  TRACK 28 AUDIO
    TITLE "0:"
    INDEX 01 00:34:42
  TRACK 29 AUDIO
    TITLE "17:cjc019_4597"
    INDEX 01 00:35:19
  TRACK 30 AUDIO
    TITLE "0:"
    INDEX 01 00:36:36
  TRACK 31 AUDIO
    TITLE "16:cjc019_4598"
    INDEX 01 00:38:12
  TRACK 32 AUDIO
    TITLE "0:"
    INDEX 01 00:39:27
  TRACK 33 AUDIO
    TITLE "18:cjc019_4599"
    INDEX 01 00:39:74
  TRACK 34 AUDIO
    TITLE "0:"
    INDEX 01 00:44:40
  TRACK 35 AUDIO
    TITLE "17:cjc019_4600"
    INDEX 01 00:45:16
  TRACK 36 AUDIO
    TITLE "0:"
    INDEX 01 00:46:31
  TRACK 37 AUDIO
    TITLE "16:cjc019_4601"
    INDEX 01 00:48:14
  TRACK 38 AUDIO
    TITLE "0:"
    INDEX 01 00:49:37
  TRACK 39 AUDIO
    TITLE "18:cjc019_4602"
    INDEX 01 00:50:17
  TRACK 40 AUDIO
    TITLE "0:"
    INDEX 01 00:53:29
  TRACK 41 AUDIO
    TITLE "17:cjc019_4603"
    INDEX 01 00:54:05
  TRACK 42 AUDIO
    TITLE "0:"
    INDEX 01 00:55:30
  TRACK 43 AUDIO
    TITLE "16:cjc019_4604"
    INDEX 01 00:57:09
  TRACK 44 AUDIO
    TITLE "0:"
    INDEX 01 00:58:20
  TRACK 45 AUDIO
    TITLE "18:cjc019_4605"
    INDEX 01 00:59:00
  TRACK 46 AUDIO
    TITLE "0:"
    INDEX 01 01:01:72
  TRACK 47 AUDIO
    TITLE "17:cjc019_4606"
    INDEX 01 01:02:52
  TRACK 48 AUDIO
    TITLE "0:"
    INDEX 01 01:03:65
  TRACK 49 AUDIO
    TITLE "16:cjc019_4607"
    INDEX 01 01:05:48
  TRACK 50 AUDIO
    TITLE "0:"
    INDEX 01 01:06:73
  TRACK 51 AUDIO
    TITLE "18:cjc019_4608"
    INDEX 01 01:07:49
  TRACK 52 AUDIO
    TITLE "0:"
    INDEX 01 01:09:52
  TRACK 53 AUDIO
    TITLE "17:cjc019_4609"
    INDEX 01 01:10:26
  TRACK 54 AUDIO
    TITLE "0:"
    INDEX 01 01:11:52
  TRACK 55 AUDIO
    TITLE "16:cjc019_4610"
    INDEX 01 01:13:32
  TRACK 56 AUDIO
    TITLE "0:"
    INDEX 01 01:14:57
  TRACK 57 AUDIO
    TITLE "18:cjc019_4611"
    INDEX 01 01:15:39
  TRACK 58 AUDIO
    TITLE "0:"
    INDEX 01 01:19:19
  TRACK 59 AUDIO
    TITLE "17:cjc019_4612"
    INDEX 01 01:20:00
  TRACK 60 AUDIO
    TITLE "0:"
    INDEX 01 01:21:25
  TRACK 61 AUDIO
    TITLE "16:cjc019_4613"
    INDEX 01 01:23:05
  TRACK 62 AUDIO
    TITLE "0:"
    INDEX 01 01:24:37
  TRACK 63 AUDIO
    TITLE "18:cjc019_4614"
    INDEX 01 01:25:19
  TRACK 64 AUDIO
    TITLE "0:"
    INDEX 01 01:28:47
  TRACK 65 AUDIO
    TITLE "17:cjc019_4615"
    INDEX 01 01:29:23
  TRACK 66 AUDIO
    TITLE "0:"
    INDEX 01 01:30:56
  TRACK 67 AUDIO
    TITLE "16:cjc019_4616"
    INDEX 01 01:32:39
  TRACK 68 AUDIO
    TITLE "0:"
    INDEX 01 01:33:58
  TRACK 69 AUDIO
    TITLE "18:cjc019_4617"
    INDEX 01 01:34:38
  TRACK 70 AUDIO
    TITLE "0:"
    INDEX 01 01:39:43
  TRACK 71 AUDIO
    TITLE "17:cjc019_4618"
    INDEX 01 01:40:25
  TRACK 72 AUDIO
    TITLE "0:"
    INDEX 01 01:41:48
  TRACK 73 AUDIO
    TITLE "16:cjc019_4619"
    INDEX 01 01:43:29
  TRACK 74 AUDIO
    TITLE "0:"
    INDEX 01 01:44:42
  TRACK 75 AUDIO
    TITLE "18:cjc019_4620"
    INDEX 01 01:45:24
  TRACK 76 AUDIO
    TITLE "0:"
    INDEX 01 01:48:50
  TRACK 77 AUDIO
    TITLE "17:cjc019_4621"
    INDEX 01 01:49:28
  TRACK 78 AUDIO
    TITLE "0:"
    INDEX 01 01:50:41
  TRACK 79 AUDIO
    TITLE "16:cjc019_4622"
    INDEX 01 01:52:22
  TRACK 80 AUDIO
    TITLE "0:"
    INDEX 01 01:53:39
  TRACK 81 AUDIO
    TITLE "18:cjc019_4623"
    INDEX 01 01:54:21
  TRACK 82 AUDIO
    TITLE "0:"
    INDEX 01 01:57:47
  TRACK 83 AUDIO
    TITLE "17:cjc019_4624"
    INDEX 01 01:58:21
  TRACK 84 AUDIO
    TITLE "0:"
    INDEX 01 01:59:44
  TRACK 85 AUDIO
    TITLE "16:cjc019_4625"
    INDEX 01 02:01:23
  TRACK 86 AUDIO
    TITLE "0:"
    INDEX 01 02:02:52
  TRACK 87 AUDIO
    TITLE "18:cjc019_4626"
    INDEX 01 02:03:34
  TRACK 88 AUDIO
    TITLE "0:"
    INDEX 01 02:07:04
  TRACK 89 AUDIO
    TITLE "17:cjc019_4627"
    INDEX 01 02:07:55
  TRACK 90 AUDIO
    TITLE "0:"
    INDEX 01 02:09:05
  TRACK 91 AUDIO
    TITLE "16:cjc019_4628"
    INDEX 01 02:10:59
  TRACK 92 AUDIO
    TITLE "0:"
    INDEX 01 02:11:57
  TRACK 93 AUDIO
    TITLE "18:cjc019_4629"
    INDEX 01 02:12:40
  TRACK 94 AUDIO
    TITLE "0:"
    INDEX 01 02:14:02
  TRACK 95 AUDIO
    TITLE "17:cjc019_4630"
    INDEX 01 02:14:51
  TRACK 96 AUDIO
    TITLE "0:"
    INDEX 01 02:15:56
  TRACK 97 AUDIO
    TITLE "16:cjc019_4631"
    INDEX 01 02:17:36
  TRACK 98 AUDIO
    TITLE "0:"
    INDEX 01 02:18:39
  TRACK 99 AUDIO
    TITLE "18:cjc019_4632"
    INDEX 01 02:19:19
  TRACK 100 AUDIO
    TITLE "0:"
    INDEX 01 02:22:62
  TRACK 101 AUDIO
    TITLE "17:cjc019_4633"
    INDEX 01 02:23:40
  TRACK 102 AUDIO
    TITLE "0:"
    INDEX 01 02:24:47
  TRACK 103 AUDIO
    TITLE "16:cjc019_4634"
    INDEX 01 02:26:21
  TRACK 104 AUDIO
    TITLE "0:"
    INDEX 01 02:27:34
  TRACK 105 AUDIO
    TITLE "18:cjc019_4635"
    INDEX 01 02:28:14
  TRACK 106 AUDIO
    TITLE "0:"
    INDEX 01 02:33:35
  TRACK 107 AUDIO
    TITLE "17:cjc019_4636"
    INDEX 01 02:34:11
  TRACK 108 AUDIO
    TITLE "0:"
    INDEX 01 02:35:28
